<svg width="55" height="59" viewBox="0 0 55 59" fill="none" xmlns="http://www.w3.org/2000/svg">
<path d="M9.33594 1.59473C12.9023 0.0559492 16.7631 0.196126 20.2012 1.65723C24.1667 3.34234 29.9291 3.34241 33.8945 1.65723C37.3325 0.196286 41.1926 0.0561232 44.7588 1.59473C52.2334 4.81974 55.5388 14.1415 52.4316 22.5273L52.4424 22.5527L52.3496 22.7539L51.3662 24.874C48.0585 32.0083 45.5649 39.4872 43.9326 47.1709L42.373 54.5146L42.3711 54.5254L42.3682 54.5352C41.7714 56.8686 39.6635 58.4999 37.25 58.5C34.6578 58.5 32.4462 56.6241 32.0342 54.0703L29.835 40.4395C29.6152 39.0776 28.4353 38.0734 27.0479 38.0732C25.6603 38.0732 24.4795 39.0775 24.2598 40.4395L22.0605 54.0703C21.6485 56.624 19.4378 58.4999 16.8457 58.5C14.432 58.5 12.3233 56.8688 11.7266 54.5352L11.7246 54.5254L11.7227 54.5146L10.1621 47.1709C8.52984 39.4872 6.03622 32.0083 2.72852 24.874L1.74609 22.7539L1.65234 22.5518L1.66211 22.5273C-1.44473 14.1416 1.86147 4.8197 9.33594 1.59473Z" fill="url(#paint0_linear_4_44)" stroke="#44C6E9"/>
<defs>
<linearGradient id="paint0_linear_4_44" x1="7.89279" y1="1" x2="38.9233" y2="55.9365" gradientUnits="userSpaceOnUse">
<stop stop-color="#F0F6F9"/>
<stop offset="1" stop-color="#CDDFF2"/>
</linearGradient>
</defs>
</svg>
